999
Generated by Autodesk CAM - http://cam.autodesk.com
0
SECTION
2
HEADER
9
$ACADVER
1
AC1006
9
$ANGBASE
50
0
9
$ANGDIR
70
0
0
ENDSEC
0
SECTION
2
BLOCKS
0
ENDSEC
9
$EXTMIN
10
-330.1
20
-190.474
30
0
9
$EXTMAX
10
330.1
20
190.474
30
15
0
SECTION
2
ENTITIES
0
LINE
8
1
62
3
10
148
20
149.408
30
15
11
148
21
149.408
31
15
0
LINE
8
1
62
3
10
148
20
149.408
30
15
11
148
21
149.408
31
0
0
LINE
8
1
62
2
10
148
20
149.408
30
0
11
147.5
21
150.274
31
0
0
LINE
8
1
62
1
10
147.5
20
150.274
30
0
11
31.5
21
150.274
31
0
0
ARC
8
1
62
1
10
31.5
20
150.374
30
0
40
0.1
50
180
51
-90
0
LINE
8
1
62
1
10
31.4
20
150.374
30
0
11
31.4
21
170.274
31
0
0
LINE
8
1
62
1
10
31.4
20
170.274
30
0
11
28.6
21
170.274
31
0
0
LINE
8
1
62
1
10
28.6
20
170.274
30
0
11
28.6
21
150.374
31
0
0
ARC
8
1
62
1
10
28.5
20
150.374
30
0
40
0.1
50
-90
51
0
0
LINE
8
1
62
1
10
28.5
20
150.274
30
0
11
-88.5
21
150.274
31
0
0
ARC
8
1
62
1
10
-88.5
20
150.374
30
0
40
0.1
50
180
51
-90
0
LINE
8
1
62
1
10
-88.6
20
150.374
30
0
11
-88.6
21
170.274
31
0
0
LINE
8
1
62
1
10
-88.6
20
170.274
30
0
11
-91.4
21
170.274
31
0
0
LINE
8
1
62
1
10
-91.4
20
170.274
30
0
11
-91.4
21
150.374
31
0
0
ARC
8
1
62
1
10
-91.5
20
150.374
30
0
40
0.1
50
-90
51
0
0
LINE
8
1
62
1
10
-91.5
20
150.274
30
0
11
-208.5
21
150.274
31
0
0
ARC
8
1
62
1
10
-208.5
20
150.374
30
0
40
0.1
50
180
51
-90
0
LINE
8
1
62
1
10
-208.6
20
150.374
30
0
11
-208.6
21
170.274
31
0
0
LINE
8
1
62
1
10
-208.6
20
170.274
30
0
11
-211.4
21
170.274
31
0
0
LINE
8
1
62
1
10
-211.4
20
170.274
30
0
11
-211.4
21
150.374
31
0
0
ARC
8
1
62
1
10
-211.5
20
150.374
30
0
40
0.1
50
-90
51
0
0
LINE
8
1
62
1
10
-211.5
20
150.274
30
0
11
-330
21
150.274
31
0
0
ARC
8
1
62
1
10
-330
20
150.374
30
0
40
0.1
50
180
51
-90
0
LINE
8
1
62
1
10
-330.1
20
150.374
30
0
11
-330.1
21
190.374
31
0
0
ARC
8
1
62
1
10
-330
20
190.374
30
0
40
0.1
50
90
51
180
0
LINE
8
1
62
1
10
-330
20
190.474
30
0
11
270
21
190.474
31
0
0
ARC
8
1
62
1
10
270
20
190.374
30
0
40
0.1
50
0
51
90
0
LINE
8
1
62
1
10
270.1
20
190.374
30
0
11
270.1
21
150.374
31
0
0
ARC
8
1
62
1
10
270
20
150.374
30
0
40
0.1
50
-90
51
0
0
LINE
8
1
62
1
10
270
20
150.274
30
0
11
151.5
21
150.274
31
0
0
ARC
8
1
62
1
10
151.5
20
150.374
30
0
40
0.1
50
180
51
-90
0
LINE
8
1
62
1
10
151.4
20
150.374
30
0
11
151.4
21
170.274
31
0
0
LINE
8
1
62
1
10
151.4
20
170.274
30
0
11
148.6
21
170.274
31
0
0
LINE
8
1
62
1
10
148.6
20
170.274
30
0
11
148.6
21
150.374
31
0
0
ARC
8
1
62
1
10
148.5
20
150.374
30
0
40
0.1
50
-90
51
0
0
LINE
8
1
62
1
10
148.5
20
150.274
30
0
11
147.5
21
150.274
31
0
0
LINE
8
1
62
2
10
147.5
20
150.274
30
0
11
147
21
149.408
31
0
0
LINE
8
1
62
3
10
147
20
149.408
30
0
11
147
21
149.408
31
5
0
LINE
8
1
62
3
10
147
20
149.408
30
5
11
-147
21
103.058
31
5
0
LINE
8
1
62
3
10
-147
20
103.058
30
5
11
-147
21
103.058
31
0
0
LINE
8
1
62
2
10
-147
20
103.058
30
0
11
-147.5
21
103.924
31
0
0
LINE
8
1
62
1
10
-147.5
20
103.924
30
0
11
-208.5
21
103.924
31
0
0
ARC
8
1
62
1
10
-208.5
20
104.024
30
0
40
0.1
50
180
51
-90
0
LINE
8
1
62
1
10
-208.6
20
104.024
30
0
11
-208.6
21
123.924
31
0
0
LINE
8
1
62
1
10
-208.6
20
123.924
30
0
11
-211.4
21
123.924
31
0
0
LINE
8
1
62
1
10
-211.4
20
123.924
30
0
11
-211.4
21
104.024
31
0
0
ARC
8
1
62
1
10
-211.5
20
104.024
30
0
40
0.1
50
-90
51
0
0
LINE
8
1
62
1
10
-211.5
20
103.924
30
0
11
-330
21
103.924
31
0
0
ARC
8
1
62
1
10
-330
20
104.024
30
0
40
0.1
50
180
51
-90
0
LINE
8
1
62
1
10
-330.1
20
104.024
30
0
11
-330.1
21
144.024
31
0
0
ARC
8
1
62
1
10
-330
20
144.024
30
0
40
0.1
50
90
51
180
0
LINE
8
1
62
1
10
-330
20
144.124
30
0
11
270
21
144.124
31
0
0
ARC
8
1
62
1
10
270
20
144.024
30
0
40
0.1
50
0
51
90
0
LINE
8
1
62
1
10
270.1
20
144.024
30
0
11
270.1
21
104.024
31
0
0
ARC
8
1
62
1
10
270
20
104.024
30
0
40
0.1
50
-90
51
0
0
LINE
8
1
62
1
10
270
20
103.924
30
0
11
151.5
21
103.924
31
0
0
ARC
8
1
62
1
10
151.5
20
104.024
30
0
40
0.1
50
180
51
-90
0
LINE
8
1
62
1
10
151.4
20
104.024
30
0
11
151.4
21
123.924
31
0
0
LINE
8
1
62
1
10
151.4
20
123.924
30
0
11
148.6
21
123.924
31
0
0
LINE
8
1
62
1
10
148.6
20
123.924
30
0
11
148.6
21
104.024
31
0
0
ARC
8
1
62
1
10
148.5
20
104.024
30
0
40
0.1
50
-90
51
0
0
LINE
8
1
62
1
10
148.5
20
103.924
30
0
11
31.5
21
103.924
31
0
0
ARC
8
1
62
1
10
31.5
20
104.024
30
0
40
0.1
50
180
51
-90
0
LINE
8
1
62
1
10
31.4
20
104.024
30
0
11
31.4
21
123.924
31
0
0
LINE
8
1
62
1
10
31.4
20
123.924
30
0
11
28.6
21
123.924
31
0
0
LINE
8
1
62
1
10
28.6
20
123.924
30
0
11
28.6
21
104.024
31
0
0
ARC
8
1
62
1
10
28.5
20
104.024
30
0
40
0.1
50
-90
51
0
0
LINE
8
1
62
1
10
28.5
20
103.924
30
0
11
-88.5
21
103.924
31
0
0
ARC
8
1
62
1
10
-88.5
20
104.024
30
0
40
0.1
50
180
51
-90
0
LINE
8
1
62
1
10
-88.6
20
104.024
30
0
11
-88.6
21
123.924
31
0
0
LINE
8
1
62
1
10
-88.6
20
123.924
30
0
11
-91.4
21
123.924
31
0
0
LINE
8
1
62
1
10
-91.4
20
123.924
30
0
11
-91.4
21
104.024
31
0
0
ARC
8
1
62
1
10
-91.5
20
104.024
30
0
40
0.1
50
-90
51
0
0
LINE
8
1
62
1
10
-91.5
20
103.924
30
0
11
-147.5
21
103.924
31
0
0
LINE
8
1
62
2
10
-147.5
20
103.924
30
0
11
-148
21
103.058
31
0
0
LINE
8
1
62
3
10
-148
20
103.058
30
0
11
-148
21
103.058
31
5
0
LINE
8
1
62
3
10
-148
20
103.058
30
5
11
-293.931
21
78.615
31
5
0
LINE
8
1
62
3
10
-293.931
20
78.615
30
5
11
-293.931
21
78.615
31
0
0
LINE
8
1
62
2
10
-293.931
20
78.615
30
0
11
-292.931
21
78.593
31
0
0
ARC
8
1
62
1
10
-296.266
20
80.616
30
0
40
3.9
50
-31.235044
51
148.764956
0
ARC
8
1
62
1
10
-296.266
20
80.616
30
0
40
3.9
50
148.764956
51
-31.235044
0
LINE
8
1
62
2
10
-292.931
20
78.593
30
0
11
-293.413
21
79.47
31
0
0
LINE
8
1
62
3
10
-293.413
20
79.47
30
0
11
-293.413
21
79.47
31
5
0
LINE
8
1
62
3
10
-293.413
20
79.47
30
5
11
-201.353
21
-15.792
31
5
0
LINE
8
1
62
3
10
-201.353
20
-15.792
30
5
11
-201.353
21
-15.792
31
0
0
LINE
8
1
62
2
10
-201.353
20
-15.792
30
0
11
-201.853
21
-14.926
31
0
0
LINE
8
1
62
1
10
-201.853
20
-14.926
30
0
11
-330
21
-14.926
31
0
0
ARC
8
1
62
1
10
-330
20
-14.826
30
0
40
0.1
50
180
51
-90
0
LINE
8
1
62
1
10
-330.1
20
-14.826
30
0
11
-330.1
21
97.674
31
0
0
ARC
8
1
62
1
10
-330
20
97.674
30
0
40
0.1
50
90
51
180
0
LINE
8
1
62
1
10
-330
20
97.774
30
0
11
324
21
97.774
31
0
0
ARC
8
1
62
1
10
324
20
97.674
30
0
40
0.1
50
0
51
90
0
LINE
8
1
62
1
10
324.1
20
97.674
30
0
11
324.1
21
-14.826
31
0
0
ARC
8
1
62
1
10
324
20
-14.826
30
0
40
0.1
50
-90
51
0
0
LINE
8
1
62
1
10
324
20
-14.926
30
0
11
-201.853
21
-14.926
31
0
0
LINE
8
1
62
2
10
-201.853
20
-14.926
30
0
11
-202.353
21
-15.792
31
0
0
LINE
8
1
62
3
10
-202.353
20
-15.792
30
0
11
-202.353
21
-15.792
31
5
0
LINE
8
1
62
3
10
-202.353
20
-15.792
30
5
11
-147.452
21
-73.172
31
5
0
LINE
8
1
62
3
10
-147.452
20
-73.172
30
5
11
-147.452
21
-73.172
31
0
0
LINE
8
1
62
2
10
-147.452
20
-73.172
30
0
11
-146.586
21
-72.672
31
0
0
LINE
8
1
62
1
10
-146.586
20
-72.672
30
0
11
-146.586
21
-71.675
31
0
0
LINE
8
1
62
1
10
-146.586
20
-71.675
30
0
11
-146.586
21
-71.475
31
0
0
LINE
8
1
62
1
10
-146.586
20
-71.475
30
0
11
-213.899
21
-71.475
31
0
0
LINE
8
1
62
1
10
-213.899
20
-71.475
30
0
11
-213.899
21
-137.345
31
0
0
LINE
8
1
62
1
10
-213.899
20
-137.345
30
0
11
-146.586
21
-137.345
31
0
0
LINE
8
1
62
1
10
-146.586
20
-137.345
30
0
11
-146.586
21
-72.672
31
0
0
LINE
8
1
62
2
10
-146.586
20
-72.672
30
0
11
-147.452
21
-72.172
31
0
0
LINE
8
1
62
3
10
-147.452
20
-72.172
30
0
11
-147.452
21
-72.172
31
5
0
LINE
8
1
62
3
10
-147.452
20
-72.172
30
5
11
-51.033
21
-89.424
31
5
0
LINE
8
1
62
3
10
-51.033
20
-89.424
30
5
11
-51.033
21
-89.424
31
0
0
LINE
8
1
62
2
10
-51.033
20
-89.424
30
0
11
-51.899
21
-89.924
31
0
0
LINE
8
1
62
1
10
-51.899
20
-89.924
30
0
11
-51.899
21
-136.375
31
0
0
LINE
8
1
62
1
10
-51.899
20
-136.375
30
0
11
54.77
21
-136.375
31
0
0
LINE
8
1
62
1
10
54.77
20
-136.375
30
0
11
54.77
21
-75.924
31
0
0
LINE
8
1
62
1
10
54.77
20
-75.924
30
0
11
-51.899
21
-75.924
31
0
0
LINE
8
1
62
1
10
-51.899
20
-75.924
30
0
11
-51.899
21
-89.924
31
0
0
LINE
8
1
62
2
10
-51.899
20
-89.924
30
0
11
-51.033
21
-90.424
31
0
0
LINE
8
1
62
3
10
-51.033
20
-90.424
30
0
11
-51.033
21
-90.424
31
5
0
LINE
8
1
62
3
10
-51.033
20
-90.424
30
5
11
170.574
21
-123.088
31
5
0
LINE
8
1
62
3
10
170.574
20
-123.088
30
5
11
170.574
21
-123.088
31
0
0
LINE
8
1
62
2
10
170.574
20
-123.088
30
0
11
169.673
21
-122.654
31
0
0
ARC
8
1
62
1
10
178.145
20
-135.07
30
0
40
15.03
50
124.309578
51
179.998081
0
ARC
8
1
62
1
10
178.145
20
-135.068
30
0
40
15.031
50
-179.998081
51
-0.001919
0
ARC
8
1
62
1
10
178.145
20
-135.07
30
0
40
15.03
50
0.001919
51
124.309578
0
LINE
8
1
62
2
10
169.673
20
-122.654
30
0
11
169.748
21
-123.651
31
0
0
LINE
8
1
62
3
10
169.748
20
-123.651
30
0
11
169.748
21
-123.651
31
5
0
LINE
8
1
62
3
10
169.748
20
-123.651
30
5
11
175.194
21
-88.798
31
5
0
LINE
8
1
62
3
10
175.194
20
-88.798
30
5
11
175.194
21
-88.798
31
0
0
LINE
8
1
62
2
10
175.194
20
-88.798
30
0
11
175.534
21
-89.738
31
0
0
ARC
8
1
62
1
10
178.146
20
-75.069
30
0
40
14.9
50
-100.095757
51
79.904243
0
ARC
8
1
62
1
10
178.146
20
-75.069
30
0
40
14.9
50
79.904243
51
-100.095757
0
LINE
8
1
62
2
10
175.534
20
-89.738
30
0
11
176.178
21
-88.973
31
0
0
LINE
8
1
62
3
10
176.178
20
-88.973
30
0
11
176.178
21
-88.973
31
5
0
LINE
8
1
62
3
10
176.178
20
-88.973
30
5
11
175.034
21
-20.21
31
5
0
LINE
8
1
62
3
10
175.034
20
-20.21
30
5
11
175.034
21
-20.21
31
0
0
LINE
8
1
62
2
10
175.034
20
-20.21
30
0
11
175.534
21
-21.076
31
0
0
LINE
8
1
62
1
10
175.534
20
-21.076
30
0
11
330
21
-21.076
31
0
0
ARC
8
1
62
1
10
330
20
-21.176
30
0
40
0.1
50
0
51
90
0
LINE
8
1
62
1
10
330.1
20
-21.176
30
0
11
330.1
21
-190.374
31
0
0
ARC
8
1
62
1
10
330
20
-190.374
30
0
40
0.1
50
-90
51
0
0
LINE
8
1
62
1
10
330
20
-190.474
30
0
11
-330
21
-190.474
31
0
0
ARC
8
1
62
1
10
-330
20
-190.374
30
0
40
0.1
50
180
51
-90
0
LINE
8
1
62
1
10
-330.1
20
-190.374
30
0
11
-330.1
21
-21.176
31
0
0
ARC
8
1
62
1
10
-330
20
-21.176
30
0
40
0.1
50
90
51
180
0
LINE
8
1
62
1
10
-330
20
-21.076
30
0
11
175.534
21
-21.076
31
0
0
LINE
8
1
62
2
10
175.534
20
-21.076
30
0
11
176.034
21
-20.21
31
0
0
LINE
8
1
62
3
10
176.034
20
-20.21
30
0
11
176.034
21
-20.21
31
15
0
ENDSEC
0
EOF
