999
Generated by Autodesk CAM - http://cam.autodesk.com
0
SECTION
2
HEADER
9
$ACADVER
1
AC1006
9
$ANGBASE
50
0
9
$ANGDIR
70
0
0
ENDSEC
0
SECTION
2
BLOCKS
0
ENDSEC
9
$EXTMIN
10
-422.8
20
-291.5
30
0
9
$EXTMAX
10
422.8
20
291.1
30
15
0
SECTION
2
ENTITIES
0
LINE
8
1
62
3
10
381.734
20
-291.5
30
15
11
381.734
21
-291.5
31
15
0
LINE
8
1
62
3
10
381.734
20
-291.5
30
15
11
381.734
21
-291.5
31
0
0
LINE
8
1
62
2
10
381.734
20
-291.5
30
0
11
382.6
21
-291
31
0
0
LINE
8
1
62
1
10
382.6
20
-291
30
0
11
382.6
21
109
31
0
0
ARC
8
1
62
1
10
382.7
20
109
30
0
40
0.1
50
90
51
180
0
LINE
8
1
62
1
10
382.7
20
109.1
30
0
11
422.7
21
109.1
31
0
0
ARC
8
1
62
1
10
422.7
20
109
30
0
40
0.1
50
0
51
90
0
LINE
8
1
62
1
10
422.8
20
109
30
0
11
422.8
21
-22.833
31
0
0
ARC
8
1
62
1
10
422.7
20
-22.833
30
0
40
0.1
50
-90
51
0
0
LINE
8
1
62
1
10
422.7
20
-22.933
30
0
11
402.8
21
-22.933
31
0
0
LINE
8
1
62
1
10
402.8
20
-22.933
30
0
11
402.8
21
-25.733
31
0
0
LINE
8
1
62
1
10
402.8
20
-25.733
30
0
11
422.7
21
-25.733
31
0
0
ARC
8
1
62
1
10
422.7
20
-25.833
30
0
40
0.1
50
0
51
90
0
LINE
8
1
62
1
10
422.8
20
-25.833
30
0
11
422.8
21
-156.167
31
0
0
ARC
8
1
62
1
10
422.7
20
-156.167
30
0
40
0.1
50
-90
51
0
0
LINE
8
1
62
1
10
422.7
20
-156.267
30
0
11
402.8
21
-156.267
31
0
0
LINE
8
1
62
1
10
402.8
20
-156.267
30
0
11
402.8
21
-159.067
31
0
0
LINE
8
1
62
1
10
402.8
20
-159.067
30
0
11
422.7
21
-159.067
31
0
0
ARC
8
1
62
1
10
422.7
20
-159.167
30
0
40
0.1
50
0
51
90
0
LINE
8
1
62
1
10
422.8
20
-159.167
30
0
11
422.8
21
-291
31
0
0
ARC
8
1
62
1
10
422.7
20
-291
30
0
40
0.1
50
-90
51
0
0
LINE
8
1
62
1
10
422.7
20
-291.1
30
0
11
382.7
21
-291.1
31
0
0
ARC
8
1
62
1
10
382.7
20
-291
30
0
40
0.1
50
180
51
-90
0
LINE
8
1
62
2
10
382.6
20
-291
30
0
11
381.734
21
-290.5
31
0
0
LINE
8
1
62
3
10
381.734
20
-290.5
30
0
11
381.734
21
-290.5
31
5
0
LINE
8
1
62
3
10
381.734
20
-290.5
30
5
11
335.384
21
-291.5
31
5
0
LINE
8
1
62
3
10
335.384
20
-291.5
30
5
11
335.384
21
-291.5
31
0
0
LINE
8
1
62
2
10
335.384
20
-291.5
30
0
11
336.25
21
-291
31
0
0
LINE
8
1
62
1
10
336.25
20
-291
30
0
11
336.25
21
109
31
0
0
ARC
8
1
62
1
10
336.35
20
109
30
0
40
0.1
50
90
51
180
0
LINE
8
1
62
1
10
336.35
20
109.1
30
0
11
376.35
21
109.1
31
0
0
ARC
8
1
62
1
10
376.35
20
109
30
0
40
0.1
50
0
51
90
0
LINE
8
1
62
1
10
376.45
20
109
30
0
11
376.45
21
-22.833
31
0
0
ARC
8
1
62
1
10
376.35
20
-22.833
30
0
40
0.1
50
-90
51
0
0
LINE
8
1
62
1
10
376.35
20
-22.933
30
0
11
356.45
21
-22.933
31
0
0
LINE
8
1
62
1
10
356.45
20
-22.933
30
0
11
356.45
21
-25.733
31
0
0
LINE
8
1
62
1
10
356.45
20
-25.733
30
0
11
376.35
21
-25.733
31
0
0
ARC
8
1
62
1
10
376.35
20
-25.833
30
0
40
0.1
50
0
51
90
0
LINE
8
1
62
1
10
376.45
20
-25.833
30
0
11
376.45
21
-156.167
31
0
0
ARC
8
1
62
1
10
376.35
20
-156.167
30
0
40
0.1
50
-90
51
0
0
LINE
8
1
62
1
10
376.35
20
-156.267
30
0
11
356.45
21
-156.267
31
0
0
LINE
8
1
62
1
10
356.45
20
-156.267
30
0
11
356.45
21
-159.067
31
0
0
LINE
8
1
62
1
10
356.45
20
-159.067
30
0
11
376.35
21
-159.067
31
0
0
ARC
8
1
62
1
10
376.35
20
-159.167
30
0
40
0.1
50
0
51
90
0
LINE
8
1
62
1
10
376.45
20
-159.167
30
0
11
376.45
21
-291
31
0
0
ARC
8
1
62
1
10
376.35
20
-291
30
0
40
0.1
50
-90
51
0
0
LINE
8
1
62
1
10
376.35
20
-291.1
30
0
11
336.35
21
-291.1
31
0
0
ARC
8
1
62
1
10
336.35
20
-291
30
0
40
0.1
50
180
51
-90
0
LINE
8
1
62
2
10
336.25
20
-291
30
0
11
335.384
21
-290.5
31
0
0
LINE
8
1
62
3
10
335.384
20
-290.5
30
0
11
335.384
21
-290.5
31
5
0
LINE
8
1
62
3
10
335.384
20
-290.5
30
5
11
289.034
21
-291.5
31
5
0
LINE
8
1
62
3
10
289.034
20
-291.5
30
5
11
289.034
21
-291.5
31
0
0
LINE
8
1
62
2
10
289.034
20
-291.5
30
0
11
289.9
21
-291
31
0
0
LINE
8
1
62
1
10
289.9
20
-291
30
0
11
289.9
21
109
31
0
0
ARC
8
1
62
1
10
290
20
109
30
0
40
0.1
50
90
51
180
0
LINE
8
1
62
1
10
290
20
109.1
30
0
11
330
21
109.1
31
0
0
ARC
8
1
62
1
10
330
20
109
30
0
40
0.1
50
0
51
90
0
LINE
8
1
62
1
10
330.1
20
109
30
0
11
330.1
21
-22.833
31
0
0
ARC
8
1
62
1
10
330
20
-22.833
30
0
40
0.1
50
-90
51
0
0
LINE
8
1
62
1
10
330
20
-22.933
30
0
11
310.1
21
-22.933
31
0
0
LINE
8
1
62
1
10
310.1
20
-22.933
30
0
11
310.1
21
-25.733
31
0
0
LINE
8
1
62
1
10
310.1
20
-25.733
30
0
11
330
21
-25.733
31
0
0
ARC
8
1
62
1
10
330
20
-25.833
30
0
40
0.1
50
0
51
90
0
LINE
8
1
62
1
10
330.1
20
-25.833
30
0
11
330.1
21
-156.167
31
0
0
ARC
8
1
62
1
10
330
20
-156.167
30
0
40
0.1
50
-90
51
0
0
LINE
8
1
62
1
10
330
20
-156.267
30
0
11
310.1
21
-156.267
31
0
0
LINE
8
1
62
1
10
310.1
20
-156.267
30
0
11
310.1
21
-159.067
31
0
0
LINE
8
1
62
1
10
310.1
20
-159.067
30
0
11
330
21
-159.067
31
0
0
ARC
8
1
62
1
10
330
20
-159.167
30
0
40
0.1
50
0
51
90
0
LINE
8
1
62
1
10
330.1
20
-159.167
30
0
11
330.1
21
-291
31
0
0
ARC
8
1
62
1
10
330
20
-291
30
0
40
0.1
50
-90
51
0
0
LINE
8
1
62
1
10
330
20
-291.1
30
0
11
290
21
-291.1
31
0
0
ARC
8
1
62
1
10
290
20
-291
30
0
40
0.1
50
180
51
-90
0
LINE
8
1
62
2
10
289.9
20
-291
30
0
11
289.034
21
-290.5
31
0
0
LINE
8
1
62
3
10
289.034
20
-290.5
30
0
11
289.034
21
-290.5
31
5
0
LINE
8
1
62
3
10
289.034
20
-290.5
30
5
11
284.616
21
109.5
31
5
0
LINE
8
1
62
3
10
284.616
20
109.5
30
5
11
284.616
21
109.5
31
0
0
LINE
8
1
62
2
10
284.616
20
109.5
30
0
11
283.75
21
109
31
0
0
LINE
8
1
62
1
10
283.75
20
109
30
0
11
283.75
21
-22.833
31
0
0
ARC
8
1
62
1
10
283.65
20
-22.833
30
0
40
0.1
50
-90
51
0
0
LINE
8
1
62
1
10
283.65
20
-22.933
30
0
11
263.75
21
-22.933
31
0
0
LINE
8
1
62
1
10
263.75
20
-22.933
30
0
11
263.75
21
-25.733
31
0
0
LINE
8
1
62
1
10
263.75
20
-25.733
30
0
11
283.65
21
-25.733
31
0
0
ARC
8
1
62
1
10
283.65
20
-25.833
30
0
40
0.1
50
0
51
90
0
LINE
8
1
62
1
10
283.75
20
-25.833
30
0
11
283.75
21
-156.167
31
0
0
ARC
8
1
62
1
10
283.65
20
-156.167
30
0
40
0.1
50
-90
51
0
0
LINE
8
1
62
1
10
283.65
20
-156.267
30
0
11
263.75
21
-156.267
31
0
0
LINE
8
1
62
1
10
263.75
20
-156.267
30
0
11
263.75
21
-159.067
31
0
0
LINE
8
1
62
1
10
263.75
20
-159.067
30
0
11
283.65
21
-159.067
31
0
0
ARC
8
1
62
1
10
283.65
20
-159.167
30
0
40
0.1
50
0
51
90
0
LINE
8
1
62
1
10
283.75
20
-159.167
30
0
11
283.75
21
-291
31
0
0
ARC
8
1
62
1
10
283.65
20
-291
30
0
40
0.1
50
-90
51
0
0
LINE
8
1
62
1
10
283.65
20
-291.1
30
0
11
243.65
21
-291.1
31
0
0
ARC
8
1
62
1
10
243.65
20
-291
30
0
40
0.1
50
180
51
-90
0
LINE
8
1
62
1
10
243.55
20
-291
30
0
11
243.55
21
109
31
0
0
ARC
8
1
62
1
10
243.65
20
109
30
0
40
0.1
50
90
51
180
0
LINE
8
1
62
1
10
243.65
20
109.1
30
0
11
283.65
21
109.1
31
0
0
ARC
8
1
62
1
10
283.65
20
109
30
0
40
0.1
50
0
51
90
0
LINE
8
1
62
2
10
283.75
20
109
30
0
11
284.616
21
108.5
31
0
0
LINE
8
1
62
3
10
284.616
20
108.5
30
0
11
284.616
21
108.5
31
5
0
LINE
8
1
62
3
10
284.616
20
108.5
30
5
11
260.726
21
129.071
31
5
0
LINE
8
1
62
3
10
260.726
20
129.071
30
5
11
260.726
21
129.071
31
0
0
LINE
8
1
62
2
10
260.726
20
129.071
30
0
11
261.706
21
128.87
31
0
0
LINE
8
1
62
1
10
261.706
20
128.87
30
0
11
360.821
21
240.375
31
0
0
LINE
8
1
62
1
10
360.821
20
240.375
30
0
11
362.247
21
241.979
31
0
0
ARC
8
1
62
1
10
362.322
20
241.913
30
0
40
0.1
50
0
51
138.365009
0
LINE
8
1
62
1
10
362.422
20
241.913
30
0
11
362.422
21
115.35
31
0
0
ARC
8
1
62
1
10
362.322
20
115.35
30
0
40
0.1
50
-90
51
0
0
LINE
8
1
62
1
10
362.322
20
115.25
30
0
11
249.822
21
115.25
31
0
0
ARC
8
1
62
1
10
249.822
20
115.35
30
0
40
0.1
50
138.370816
51
-90
0
LINE
8
1
62
1
10
249.747
20
115.416
30
0
11
261.706
21
128.87
31
0
0
LINE
8
1
62
2
10
261.706
20
128.87
30
0
11
261.391
21
129.819
31
0
0
LINE
8
1
62
3
10
261.391
20
129.819
30
0
11
261.391
21
129.819
31
5
0
LINE
8
1
62
3
10
261.391
20
129.819
30
5
11
242.684
21
128.465
31
5
0
LINE
8
1
62
3
10
242.684
20
128.465
30
5
11
242.684
21
128.465
31
0
0
LINE
8
1
62
2
10
242.684
20
128.465
30
0
11
243.55
21
128.965
31
0
0
LINE
8
1
62
1
10
243.55
20
128.965
30
0
11
243.55
21
244.527
31
0
0
ARC
8
1
62
1
10
243.65
20
244.527
30
0
40
0.1
50
90
51
180
0
LINE
8
1
62
1
10
243.65
20
244.627
30
0
11
356.15
21
244.627
31
0
0
ARC
8
1
62
1
10
356.15
20
244.527
30
0
40
0.1
50
-41.634991
51
90
0
LINE
8
1
62
1
10
356.225
20
244.461
30
0
11
243.725
21
117.899
31
0
0
ARC
8
1
62
1
10
243.65
20
117.965
30
0
40
0.1
50
180
51
-41.625916
0
LINE
8
1
62
1
10
243.55
20
117.965
30
0
11
243.55
21
128.965
31
0
0
LINE
8
1
62
2
10
243.55
20
128.965
30
0
11
242.684
21
129.465
31
0
0
LINE
8
1
62
3
10
242.684
20
129.465
30
0
11
242.684
21
129.465
31
5
0
LINE
8
1
62
3
10
242.684
20
129.465
30
5
11
238.266
21
129.465
31
5
0
LINE
8
1
62
3
10
238.266
20
129.465
30
5
11
238.266
21
129.465
31
0
0
LINE
8
1
62
2
10
238.266
20
129.465
30
0
11
237.4
21
128.965
31
0
0
LINE
8
1
62
1
10
237.4
20
128.965
30
0
11
237.4
21
-291
31
0
0
ARC
8
1
62
1
10
237.3
20
-291
30
0
40
0.1
50
-90
51
0
0
LINE
8
1
62
1
10
237.3
20
-291.1
30
0
11
-422.7
21
-291.1
31
0
0
ARC
8
1
62
1
10
-422.7
20
-291
30
0
40
0.1
50
180
51
-90
0
LINE
8
1
62
1
10
-422.8
20
-291
30
0
11
-422.8
21
291
31
0
0
ARC
8
1
62
1
10
-422.7
20
291
30
0
40
0.1
50
90
51
180
0
LINE
8
1
62
1
10
-422.7
20
291.1
30
0
11
237.3
21
291.1
31
0
0
ARC
8
1
62
1
10
237.3
20
291
30
0
40
0.1
50
0
51
90
0
LINE
8
1
62
1
10
237.4
20
291
30
0
11
237.4
21
128.965
31
0
0
LINE
8
1
62
2
10
237.4
20
128.965
30
0
11
238.266
21
128.465
31
0
0
LINE
8
1
62
3
10
238.266
20
128.465
30
0
11
238.266
21
128.465
31
15
0
ENDSEC
0
EOF
