999
Generated by Autodesk CAM - http://cam.autodesk.com
0
SECTION
2
HEADER
9
$ACADVER
1
AC1006
9
$ANGBASE
50
0
9
$ANGDIR
70
0
0
ENDSEC
0
SECTION
2
BLOCKS
0
ENDSEC
9
$EXTMIN
10
-421.667
20
-259.292
30
0
9
$EXTMAX
10
421.667
20
259.292
30
15
0
SECTION
2
ENTITIES
0
LINE
8
1
62
3
10
2.217
20
-249.5
30
15
11
2.217
21
-249.5
31
15
0
LINE
8
1
62
3
10
2.217
20
-249.5
30
15
11
2.217
21
-249.5
31
0
0
LINE
8
1
62
2
10
2.217
20
-249.5
30
0
11
3.083
21
-249
31
0
0
LINE
8
1
62
1
10
3.083
20
-249
30
0
11
3.083
21
250
31
0
0
ARC
8
1
62
1
10
3.183
20
250
30
0
40
0.1
50
90
51
180
0
LINE
8
1
62
1
10
3.183
20
250.1
30
0
11
12.275
21
250.1
31
0
0
LINE
8
1
62
1
10
12.275
20
250.1
30
0
11
12.275
21
259.192
31
0
0
ARC
8
1
62
1
10
12.375
20
259.192
30
0
40
0.1
50
90
51
180
0
LINE
8
1
62
1
10
12.375
20
259.292
30
0
11
412.375
21
259.292
31
0
0
ARC
8
1
62
1
10
412.375
20
259.192
30
0
40
0.1
50
0
51
90
0
LINE
8
1
62
1
10
412.475
20
259.192
30
0
11
412.475
21
250.1
31
0
0
LINE
8
1
62
1
10
412.475
20
250.1
30
0
11
421.567
21
250.1
31
0
0
ARC
8
1
62
1
10
421.567
20
250
30
0
40
0.1
50
0
51
90
0
LINE
8
1
62
1
10
421.667
20
250
30
0
11
421.667
21
-250
31
0
0
ARC
8
1
62
1
10
421.567
20
-250
30
0
40
0.1
50
-90
51
0
0
LINE
8
1
62
1
10
421.567
20
-250.1
30
0
11
412.475
21
-250.1
31
0
0
LINE
8
1
62
1
10
412.475
20
-250.1
30
0
11
412.475
21
-259.192
31
0
0
ARC
8
1
62
1
10
412.375
20
-259.192
30
0
40
0.1
50
-90
51
0
0
LINE
8
1
62
1
10
412.375
20
-259.292
30
0
11
12.375
21
-259.292
31
0
0
ARC
8
1
62
1
10
12.375
20
-259.192
30
0
40
0.1
50
180
51
-90
0
LINE
8
1
62
1
10
12.275
20
-259.192
30
0
11
12.275
21
-250.1
31
0
0
LINE
8
1
62
1
10
12.275
20
-250.1
30
0
11
3.183
21
-250.1
31
0
0
ARC
8
1
62
1
10
3.183
20
-250
30
0
40
0.1
50
180
51
-90
0
LINE
8
1
62
1
10
3.083
20
-250
30
0
11
3.083
21
-249
31
0
0
LINE
8
1
62
2
10
3.083
20
-249
30
0
11
2.217
21
-248.5
31
0
0
LINE
8
1
62
3
10
2.217
20
-248.5
30
0
11
2.217
21
-248.5
31
5
0
LINE
8
1
62
3
10
2.217
20
-248.5
30
5
11
-2.217
21
-248.5
31
5
0
LINE
8
1
62
3
10
-2.217
20
-248.5
30
5
11
-2.217
21
-248.5
31
0
0
LINE
8
1
62
2
10
-2.217
20
-248.5
30
0
11
-3.083
21
-249
31
0
0
LINE
8
1
62
1
10
-3.083
20
-249
30
0
11
-3.083
21
-250
31
0
0
ARC
8
1
62
1
10
-3.183
20
-250
30
0
40
0.1
50
-90
51
0
0
LINE
8
1
62
1
10
-3.183
20
-250.1
30
0
11
-12.275
21
-250.1
31
0
0
LINE
8
1
62
1
10
-12.275
20
-250.1
30
0
11
-12.275
21
-259.192
31
0
0
ARC
8
1
62
1
10
-12.375
20
-259.192
30
0
40
0.1
50
-90
51
0
0
LINE
8
1
62
1
10
-12.375
20
-259.292
30
0
11
-412.375
21
-259.292
31
0
0
ARC
8
1
62
1
10
-412.375
20
-259.192
30
0
40
0.1
50
180
51
-90
0
LINE
8
1
62
1
10
-412.475
20
-259.192
30
0
11
-412.475
21
-250.1
31
0
0
LINE
8
1
62
1
10
-412.475
20
-250.1
30
0
11
-421.567
21
-250.1
31
0
0
ARC
8
1
62
1
10
-421.567
20
-250
30
0
40
0.1
50
180
51
-90
0
LINE
8
1
62
1
10
-421.667
20
-250
30
0
11
-421.667
21
250
31
0
0
ARC
8
1
62
1
10
-421.567
20
250
30
0
40
0.1
50
90
51
180
0
LINE
8
1
62
1
10
-421.567
20
250.1
30
0
11
-412.475
21
250.1
31
0
0
LINE
8
1
62
1
10
-412.475
20
250.1
30
0
11
-412.475
21
259.192
31
0
0
ARC
8
1
62
1
10
-412.375
20
259.192
30
0
40
0.1
50
90
51
180
0
LINE
8
1
62
1
10
-412.375
20
259.292
30
0
11
-12.375
21
259.292
31
0
0
ARC
8
1
62
1
10
-12.375
20
259.192
30
0
40
0.1
50
0
51
90
0
LINE
8
1
62
1
10
-12.275
20
259.192
30
0
11
-12.275
21
250.1
31
0
0
LINE
8
1
62
1
10
-12.275
20
250.1
30
0
11
-3.183
21
250.1
31
0
0
ARC
8
1
62
1
10
-3.183
20
250
30
0
40
0.1
50
0
51
90
0
LINE
8
1
62
1
10
-3.083
20
250
30
0
11
-3.083
21
-249
31
0
0
LINE
8
1
62
2
10
-3.083
20
-249
30
0
11
-2.217
21
-249.5
31
0
0
LINE
8
1
62
3
10
-2.217
20
-249.5
30
0
11
-2.217
21
-249.5
31
15
0
ENDSEC
0
EOF
