999
Generated by Autodesk CAM - http://cam.autodesk.com
0
SECTION
2
HEADER
9
$ACADVER
1
AC1006
9
$ANGBASE
50
0
9
$ANGDIR
70
0
0
ENDSEC
0
SECTION
2
BLOCKS
0
ENDSEC
9
$EXTMIN
10
-448.95
20
-287.667
30
0
9
$EXTMAX
10
448.95
20
287.267
30
15
0
SECTION
2
ENTITIES
0
LINE
8
1
62
3
10
335.384
20
-287.667
30
15
11
335.384
21
-287.667
31
15
0
LINE
8
1
62
3
10
335.384
20
-287.667
30
15
11
335.384
21
-287.667
31
0
0
LINE
8
1
62
2
10
335.384
20
-287.667
30
0
11
336.25
21
-287.167
31
0
0
LINE
8
1
62
1
10
336.25
20
-287.167
30
0
11
336.25
21
165.317
31
0
0
ARC
8
1
62
1
10
336.35
20
165.317
30
0
40
0.1
50
90
51
180
0
LINE
8
1
62
1
10
336.35
20
165.417
30
0
11
448.85
21
165.417
31
0
0
ARC
8
1
62
1
10
448.85
20
165.317
30
0
40
0.1
50
0
51
90
0
LINE
8
1
62
1
10
448.95
20
165.317
30
0
11
448.95
21
-287.167
31
0
0
ARC
8
1
62
1
10
448.85
20
-287.167
30
0
40
0.1
50
-90
51
0
0
LINE
8
1
62
1
10
448.85
20
-287.267
30
0
11
336.35
21
-287.267
31
0
0
ARC
8
1
62
1
10
336.35
20
-287.167
30
0
40
0.1
50
180
51
-90
0
LINE
8
1
62
2
10
336.25
20
-287.167
30
0
11
335.384
21
-286.667
31
0
0
LINE
8
1
62
3
10
335.384
20
-286.667
30
0
11
335.384
21
-286.667
31
5
0
LINE
8
1
62
3
10
335.384
20
-286.667
30
5
11
216.534
21
-232.667
31
5
0
LINE
8
1
62
3
10
216.534
20
-232.667
30
5
11
216.534
21
-232.667
31
0
0
LINE
8
1
62
2
10
216.534
20
-232.667
30
0
11
217.4
21
-232.167
31
0
0
LINE
8
1
62
1
10
217.4
20
-232.167
30
0
11
217.4
21
165.317
31
0
0
ARC
8
1
62
1
10
217.5
20
165.317
30
0
40
0.1
50
90
51
180
0
LINE
8
1
62
1
10
217.5
20
165.417
30
0
11
330
21
165.417
31
0
0
ARC
8
1
62
1
10
330
20
165.317
30
0
40
0.1
50
0
51
90
0
LINE
8
1
62
1
10
330.1
20
165.317
30
0
11
330.1
21
-287.167
31
0
0
ARC
8
1
62
1
10
330
20
-287.167
30
0
40
0.1
50
-90
51
0
0
LINE
8
1
62
1
10
330
20
-287.267
30
0
11
217.5
21
-287.267
31
0
0
ARC
8
1
62
1
10
217.5
20
-287.167
30
0
40
0.1
50
180
51
-90
0
LINE
8
1
62
1
10
217.4
20
-287.167
30
0
11
217.4
21
-232.167
31
0
0
LINE
8
1
62
2
10
217.4
20
-232.167
30
0
11
216.534
21
-231.667
31
0
0
LINE
8
1
62
3
10
216.534
20
-231.667
30
0
11
216.534
21
-231.667
31
5
0
LINE
8
1
62
3
10
216.534
20
-231.667
30
5
11
-301.316
21
136.93
31
5
0
LINE
8
1
62
3
10
-301.316
20
136.93
30
5
11
-301.316
21
136.93
31
0
0
LINE
8
1
62
2
10
-301.316
20
136.93
30
0
11
-300.45
21
137.43
31
0
0
LINE
8
1
62
1
10
-300.45
20
137.43
30
0
11
-300.45
21
138.217
31
0
0
LINE
8
1
62
1
10
-300.45
20
138.217
30
0
11
-418.75
21
138.217
31
0
0
LINE
8
1
62
1
10
-418.75
20
138.217
30
0
11
-418.75
21
5.617
31
0
0
LINE
8
1
62
1
10
-418.75
20
5.617
30
0
11
-300.45
21
5.617
31
0
0
LINE
8
1
62
1
10
-300.45
20
5.617
30
0
11
-300.45
21
137.43
31
0
0
LINE
8
1
62
2
10
-300.45
20
137.43
30
0
11
-301.316
21
137.93
31
0
0
LINE
8
1
62
3
10
-301.316
20
137.93
30
0
11
-301.316
21
137.93
31
5
0
LINE
8
1
62
3
10
-301.316
20
137.93
30
5
11
-301.163
21
169.283
31
5
0
LINE
8
1
62
3
10
-301.163
20
169.283
30
5
11
-301.163
21
169.283
31
0
0
LINE
8
1
62
2
10
-301.163
20
169.283
30
0
11
-300.663
21
168.417
31
0
0
LINE
8
1
62
1
10
-300.663
20
168.417
30
0
11
211.15
21
168.417
31
0
0
ARC
8
1
62
1
10
211.15
20
168.317
30
0
40
0.1
50
0
51
90
0
LINE
8
1
62
1
10
211.25
20
168.317
30
0
11
211.25
21
-287.167
31
0
0
ARC
8
1
62
1
10
211.15
20
-287.167
30
0
40
0.1
50
-90
51
0
0
LINE
8
1
62
1
10
211.15
20
-287.267
30
0
11
-448.85
21
-287.267
31
0
0
ARC
8
1
62
1
10
-448.85
20
-287.167
30
0
40
0.1
50
180
51
-90
0
LINE
8
1
62
1
10
-448.95
20
-287.167
30
0
11
-448.95
21
168.317
31
0
0
ARC
8
1
62
1
10
-448.85
20
168.317
30
0
40
0.1
50
90
51
180
0
LINE
8
1
62
1
10
-448.85
20
168.417
30
0
11
-300.663
21
168.417
31
0
0
LINE
8
1
62
2
10
-300.663
20
168.417
30
0
11
-300.163
21
169.283
31
0
0
LINE
8
1
62
3
10
-300.163
20
169.283
30
0
11
-300.163
21
169.283
31
5
0
LINE
8
1
62
3
10
-300.163
20
169.283
30
5
11
-300.163
21
173.701
31
5
0
LINE
8
1
62
3
10
-300.163
20
173.701
30
5
11
-300.163
21
173.701
31
0
0
LINE
8
1
62
2
10
-300.163
20
173.701
30
0
11
-300.663
21
174.567
31
0
0
LINE
8
1
62
1
10
-300.663
20
174.567
30
0
11
-448.85
21
174.567
31
0
0
ARC
8
1
62
1
10
-448.85
20
174.667
30
0
40
0.1
50
180
51
-90
0
LINE
8
1
62
1
10
-448.95
20
174.667
30
0
11
-448.95
21
287.167
31
0
0
ARC
8
1
62
1
10
-448.85
20
287.167
30
0
40
0.1
50
90
51
180
0
LINE
8
1
62
1
10
-448.85
20
287.267
30
0
11
211.15
21
287.267
31
0
0
ARC
8
1
62
1
10
211.15
20
287.167
30
0
40
0.1
50
0
51
90
0
LINE
8
1
62
1
10
211.25
20
287.167
30
0
11
211.25
21
174.667
31
0
0
ARC
8
1
62
1
10
211.15
20
174.667
30
0
40
0.1
50
-90
51
0
0
LINE
8
1
62
1
10
211.15
20
174.567
30
0
11
-300.663
21
174.567
31
0
0
LINE
8
1
62
2
10
-300.663
20
174.567
30
0
11
-301.163
21
173.701
31
0
0
LINE
8
1
62
3
10
-301.163
20
173.701
30
0
11
-301.163
21
173.701
31
15
0
ENDSEC
0
EOF
